# xmcd
#
# Track frame offsets:
#	150
#	8829
#	20002
#	29875
#	42705
#	54871
#	65587
#	76045
#	88666
#	99741
#	110211
#	121279
#	133369
#	144919
#	155747
#	168916
#
# Disc length: 2428 seconds
#
# Revision: 1
# Processed by: cddbd v1.5.2PL0 Copyright (c) Steve Scherf et al.
# Submitted via: audiograbber 1.83.01
#
DISCID=e2097a10
DTITLE=Patsy Cline - The Best of Patsy Cline, Disc 3
DYEAR=1900
DGENRE=Country
TTITLE0=Come On In
TTITLE1=Stop the World (And Let Me Off)
TTITLE2=I'm Blue Again
TTITLE3=Yes, I Understand
TTITLE4=In Care of the Blues
TTITLE5=Gotta Lot of Rhythm In My Soul
TTITLE6=I Love Honey
TTITLE7=Figerprints
TTITLE8=There He Goes
TTITLE9=He'll Do For You (What He's Done for Me)
TTITLE10=I Can't Forget You
TTITLE11=Today, Tomorrow and Forever
TTITLE12=Crazy Dreams
TTITLE13=I Can See An Angel
TTITLE14=If I Could See the World
TTITLE15=Life's a Railroad to Heaven
EXTD=
EXTT0=
EXTT1=
EXTT2=
EXTT3=
EXTT4=
EXTT5=
EXTT6=
EXTT7=
EXTT8=
EXTT9=
EXTT10=
EXTT11=
EXTT12=
EXTT13=
EXTT14=
EXTT15=
PLAYORDER=
